# xmcd
#
# Track frame offsets:
#	150
#	12042
#	24954
#	35783
#	55339
#	68189
#	79669
#	91944
#	104380
#	114013
#	123772
#	141439
#	150876
#	163674
#	175110
#	188179
#	202375
#	212822
#	224659
#	236116
#
# Disc length: 3273 seconds
#
# Revision: 2
# Processed by: cddbd v1.5.2PL0 Copyright (c) Steve Scherf et al.
# Submitted via: EasyCDDAExtractor 10.0.5.1
#
DISCID=150cc714
DTITLE=Various Artist - Country Greats - Disc 5
DYEAR=1900
DGENRE=Country
TTITLE0=Donna Fargo - Funny Face
TTITLE1=Faron Young - It's Four In The Morning
TTITLE2=Hank Locklin - Send Me The Pillow That You Dream On
TTITLE3=Brian Cad - Let Go
TTITLE4=Claude King - Wolverton Mountain
TTITLE5=Freddy Fender - Before The Next Teardrop Falls
TTITLE6=Jack Blanchard and Misty Morgan - Tennessee Birdwalk
TTITLE7=Hank Williams - Rootie Tootie
TTITLE8=Dave Dudley - Truck Drivin Son Of A Gun
TTITLE9=Johnny Cash - Rock Island Line
TTITLE10=Kenny Rogers - Somethings Burning
TTITLE11=Conway Twitty - Ever Since You Went Away
TTITLE12=Bluestone - Wind And Rain
TTITLE13=Kitty Wells - Heartbreak USA
TTITLE14=Merle Haggard - Kentucky Gambler
TTITLE15=Narvel Felts - Runny How Time Slips Away
TTITLE16=Patsy Cline - I Love You Honey
TTITLE17=Johnny Russell - Softly And Tenderly
TTITLE18=Bobby and Laurie - Through The Eyes Of Love
TTITLE19=Frankie Laine - Rawhide
EXTD=
EXTT0=
EXTT1=
EXTT2=
EXTT3=
EXTT4=
EXTT5=
EXTT6=
EXTT7=
EXTT8=
EXTT9=
EXTT10=
EXTT11=
EXTT12=
EXTT13=
EXTT14=
EXTT15=
EXTT16=
EXTT17=
EXTT18=
EXTT19=
PLAYORDER=
